<mxfile host="Electron" modified="2023-12-10T16:36:43.629Z" agent="Mozilla/5.0 (Windows NT 10.0; Win64; x64) AppleWebKit/537.36 (KHTML, like Gecko) draw.io/21.6.1 Chrome/112.0.5615.204 Electron/24.6.1 Safari/537.36" etag="gbBjREDG1mRfkOj5OVx8" version="21.6.1" type="device">
  <diagram name="Page-1" id="pEFDdFD9BZ6yq_hQjBZd">
    <mxGraphModel dx="5220" dy="2343" grid="1" gridSize="10" guides="1" tooltips="1" connect="1" arrows="1" fold="1" page="1" pageScale="1" pageWidth="1169" pageHeight="1654" math="0" shadow="0">
      <root>
        <mxCell id="0" />
        <mxCell id="1" parent="0" />
        <mxCell id="y_BazxBhM6D4knRKg7ZD-9" value="" style="swimlane;startSize=0;swimlaneLine=1;strokeWidth=8;" parent="1" vertex="1">
          <mxGeometry x="460" y="330" width="1370" height="6690" as="geometry" />
        </mxCell>
        <mxCell id="kZPlmQz0IdTDuedcgZzN-22" value="&lt;span style=&quot;font-size: 31px;&quot;&gt;Login&lt;/span&gt;" style="ellipse;whiteSpace=wrap;html=1;" parent="y_BazxBhM6D4knRKg7ZD-9" vertex="1">
          <mxGeometry x="500" y="240" width="425" height="220" as="geometry" />
        </mxCell>
        <mxCell id="kZPlmQz0IdTDuedcgZzN-29" value="&lt;span style=&quot;font-size: 31px;&quot;&gt;Signup&lt;/span&gt;" style="ellipse;whiteSpace=wrap;html=1;" parent="y_BazxBhM6D4knRKg7ZD-9" vertex="1">
          <mxGeometry x="482.5" y="570" width="442.5" height="220" as="geometry" />
        </mxCell>
        <mxCell id="kZPlmQz0IdTDuedcgZzN-30" value="&lt;span style=&quot;font-size: 31px;&quot;&gt;Add to Cart&lt;/span&gt;" style="ellipse;whiteSpace=wrap;html=1;" parent="y_BazxBhM6D4knRKg7ZD-9" vertex="1">
          <mxGeometry x="890" y="2170" width="311.25" height="140" as="geometry" />
        </mxCell>
        <mxCell id="kZPlmQz0IdTDuedcgZzN-31" value="&lt;span style=&quot;font-size: 31px;&quot;&gt;Reviews&lt;/span&gt;" style="ellipse;whiteSpace=wrap;html=1;" parent="y_BazxBhM6D4knRKg7ZD-9" vertex="1">
          <mxGeometry x="453.28000000000003" y="3560" width="410" height="219" as="geometry" />
        </mxCell>
        <mxCell id="kZPlmQz0IdTDuedcgZzN-32" value="&lt;span style=&quot;font-size: 31px;&quot;&gt;Search for products&lt;/span&gt;" style="ellipse;whiteSpace=wrap;html=1;" parent="y_BazxBhM6D4knRKg7ZD-9" vertex="1">
          <mxGeometry x="440" y="2370" width="280" height="140" as="geometry" />
        </mxCell>
        <mxCell id="kZPlmQz0IdTDuedcgZzN-49" value="&lt;span style=&quot;font-size: 31px;&quot;&gt;Products&lt;/span&gt;" style="ellipse;whiteSpace=wrap;html=1;" parent="y_BazxBhM6D4knRKg7ZD-9" vertex="1">
          <mxGeometry x="423.12" y="1840" width="410" height="200" as="geometry" />
        </mxCell>
        <mxCell id="kZPlmQz0IdTDuedcgZzN-50" value="" style="endArrow=classic;html=1;rounded=0;exitX=0.903;exitY=0.792;exitDx=0;exitDy=0;dashed=1;strokeWidth=3;exitPerimeter=0;" parent="y_BazxBhM6D4knRKg7ZD-9" source="kZPlmQz0IdTDuedcgZzN-49" target="kZPlmQz0IdTDuedcgZzN-30" edge="1">
          <mxGeometry relative="1" as="geometry">
            <mxPoint x="1596.38" y="2710" as="sourcePoint" />
            <mxPoint x="1604.38" y="2490" as="targetPoint" />
            <Array as="points" />
          </mxGeometry>
        </mxCell>
        <mxCell id="kZPlmQz0IdTDuedcgZzN-51" value="&lt;font style=&quot;font-size: 22px;&quot;&gt;&amp;lt;&amp;lt;Include&amp;gt;&amp;gt;&lt;/font&gt;" style="edgeLabel;resizable=0;html=1;align=center;verticalAlign=middle;" parent="kZPlmQz0IdTDuedcgZzN-50" connectable="0" vertex="1">
          <mxGeometry relative="1" as="geometry" />
        </mxCell>
        <mxCell id="kZPlmQz0IdTDuedcgZzN-52" value="" style="endArrow=classic;html=1;rounded=0;dashed=1;strokeWidth=3;exitX=0.5;exitY=0;exitDx=0;exitDy=0;" parent="y_BazxBhM6D4knRKg7ZD-9" source="kZPlmQz0IdTDuedcgZzN-32" target="kZPlmQz0IdTDuedcgZzN-49" edge="1">
          <mxGeometry relative="1" as="geometry">
            <mxPoint x="570" y="2360" as="sourcePoint" />
            <mxPoint x="731.38" y="2200" as="targetPoint" />
          </mxGeometry>
        </mxCell>
        <mxCell id="kZPlmQz0IdTDuedcgZzN-53" value="&lt;font style=&quot;font-size: 22px;&quot;&gt;&amp;lt;&amp;lt;Extends&amp;gt;&amp;gt;&lt;/font&gt;" style="edgeLabel;resizable=0;html=1;align=center;verticalAlign=middle;" parent="kZPlmQz0IdTDuedcgZzN-52" connectable="0" vertex="1">
          <mxGeometry relative="1" as="geometry" />
        </mxCell>
        <mxCell id="kZPlmQz0IdTDuedcgZzN-54" value="&lt;span style=&quot;font-size: 31px;&quot;&gt;Logout&lt;/span&gt;" style="ellipse;whiteSpace=wrap;html=1;" parent="y_BazxBhM6D4knRKg7ZD-9" vertex="1">
          <mxGeometry x="488.75" y="1030" width="430" height="200" as="geometry" />
        </mxCell>
        <mxCell id="1b8Qt41T46wIf8lHuvjN-17" value="&lt;span style=&quot;font-size: 31px;&quot;&gt;Notifications&lt;/span&gt;" style="ellipse;whiteSpace=wrap;html=1;" parent="y_BazxBhM6D4knRKg7ZD-9" vertex="1">
          <mxGeometry x="461.16" y="4280" width="440" height="220" as="geometry" />
        </mxCell>
        <mxCell id="1b8Qt41T46wIf8lHuvjN-18" value="&lt;span style=&quot;font-size: 31px;&quot;&gt;Emails&lt;/span&gt;" style="ellipse;whiteSpace=wrap;html=1;" parent="y_BazxBhM6D4knRKg7ZD-9" vertex="1">
          <mxGeometry x="543.66" y="4640" width="275" height="175" as="geometry" />
        </mxCell>
        <mxCell id="kZPlmQz0IdTDuedcgZzN-56" value="&lt;span style=&quot;font-size: 31px;&quot;&gt;Delete Reviews&lt;/span&gt;" style="ellipse;whiteSpace=wrap;html=1;" parent="y_BazxBhM6D4knRKg7ZD-9" vertex="1">
          <mxGeometry x="300.16" y="4000" width="340" height="160" as="geometry" />
        </mxCell>
        <mxCell id="kZPlmQz0IdTDuedcgZzN-71" value="" style="endArrow=classic;html=1;rounded=0;dashed=1;strokeWidth=3;" parent="y_BazxBhM6D4knRKg7ZD-9" source="kZPlmQz0IdTDuedcgZzN-31" target="kZPlmQz0IdTDuedcgZzN-55" edge="1">
          <mxGeometry relative="1" as="geometry">
            <mxPoint x="751.28" y="3809" as="sourcePoint" />
            <mxPoint x="982.28" y="3720" as="targetPoint" />
            <Array as="points" />
          </mxGeometry>
        </mxCell>
        <mxCell id="kZPlmQz0IdTDuedcgZzN-72" value="&lt;font style=&quot;font-size: 22px;&quot;&gt;&amp;lt;&amp;lt;Include&amp;gt;&amp;gt;&lt;/font&gt;" style="edgeLabel;resizable=0;html=1;align=center;verticalAlign=middle;" parent="kZPlmQz0IdTDuedcgZzN-71" connectable="0" vertex="1">
          <mxGeometry relative="1" as="geometry" />
        </mxCell>
        <mxCell id="kZPlmQz0IdTDuedcgZzN-73" value="" style="endArrow=classic;html=1;rounded=0;dashed=1;strokeWidth=3;exitX=0.274;exitY=0.946;exitDx=0;exitDy=0;exitPerimeter=0;" parent="y_BazxBhM6D4knRKg7ZD-9" source="kZPlmQz0IdTDuedcgZzN-31" target="kZPlmQz0IdTDuedcgZzN-56" edge="1">
          <mxGeometry relative="1" as="geometry">
            <mxPoint x="323.27793258463373" y="3850.000624881948" as="sourcePoint" />
            <mxPoint x="588.35" y="3986.67" as="targetPoint" />
            <Array as="points" />
          </mxGeometry>
        </mxCell>
        <mxCell id="kZPlmQz0IdTDuedcgZzN-74" value="&lt;font style=&quot;font-size: 22px;&quot;&gt;&amp;lt;&amp;lt;Include&amp;gt;&amp;gt;&lt;/font&gt;" style="edgeLabel;resizable=0;html=1;align=center;verticalAlign=middle;" parent="kZPlmQz0IdTDuedcgZzN-73" connectable="0" vertex="1">
          <mxGeometry relative="1" as="geometry" />
        </mxCell>
        <mxCell id="kZPlmQz0IdTDuedcgZzN-55" value="&lt;span style=&quot;font-size: 31px;&quot;&gt;Write Reviews&lt;/span&gt;" style="ellipse;whiteSpace=wrap;html=1;" parent="y_BazxBhM6D4knRKg7ZD-9" vertex="1">
          <mxGeometry x="803.28" y="3970" width="330" height="170" as="geometry" />
        </mxCell>
        <mxCell id="kZPlmQz0IdTDuedcgZzN-75" value="&lt;span style=&quot;font-size: 31px;&quot;&gt;Payments&lt;/span&gt;" style="ellipse;whiteSpace=wrap;html=1;" parent="y_BazxBhM6D4knRKg7ZD-9" vertex="1">
          <mxGeometry x="980" y="2520" width="360" height="160" as="geometry" />
        </mxCell>
        <mxCell id="1b8Qt41T46wIf8lHuvjN-22" value="" style="endArrow=classic;html=1;rounded=0;dashed=1;strokeWidth=3;entryX=0.5;entryY=1;entryDx=0;entryDy=0;exitX=0.5;exitY=0;exitDx=0;exitDy=0;" parent="y_BazxBhM6D4knRKg7ZD-9" source="1b8Qt41T46wIf8lHuvjN-18" target="1b8Qt41T46wIf8lHuvjN-17" edge="1">
          <mxGeometry relative="1" as="geometry">
            <mxPoint x="688.66" y="4680" as="sourcePoint" />
            <mxPoint x="745.16" y="4470" as="targetPoint" />
          </mxGeometry>
        </mxCell>
        <mxCell id="1b8Qt41T46wIf8lHuvjN-23" value="&lt;font style=&quot;font-size: 22px;&quot;&gt;&amp;lt;&amp;lt;Extends&amp;gt;&amp;gt;&lt;/font&gt;" style="edgeLabel;resizable=0;html=1;align=center;verticalAlign=middle;" parent="1b8Qt41T46wIf8lHuvjN-22" connectable="0" vertex="1">
          <mxGeometry relative="1" as="geometry" />
        </mxCell>
        <mxCell id="kZPlmQz0IdTDuedcgZzN-76" value="" style="endArrow=classic;html=1;rounded=0;dashed=1;strokeWidth=3;entryX=0.5;entryY=0;entryDx=0;entryDy=0;" parent="y_BazxBhM6D4knRKg7ZD-9" source="kZPlmQz0IdTDuedcgZzN-30" target="kZPlmQz0IdTDuedcgZzN-75" edge="1">
          <mxGeometry relative="1" as="geometry">
            <mxPoint x="654.63" y="2178" as="sourcePoint" />
            <mxPoint x="1220" y="2530" as="targetPoint" />
            <Array as="points" />
          </mxGeometry>
        </mxCell>
        <mxCell id="kZPlmQz0IdTDuedcgZzN-77" value="&lt;font style=&quot;font-size: 22px;&quot;&gt;&amp;lt;&amp;lt;Extend&amp;gt;&amp;gt;&lt;/font&gt;" style="edgeLabel;resizable=0;html=1;align=center;verticalAlign=middle;" parent="kZPlmQz0IdTDuedcgZzN-76" connectable="0" vertex="1">
          <mxGeometry relative="1" as="geometry" />
        </mxCell>
        <mxCell id="kZPlmQz0IdTDuedcgZzN-79" value="&lt;span style=&quot;font-size: 31px;&quot;&gt;Remove from cart&lt;/span&gt;" style="ellipse;whiteSpace=wrap;html=1;" parent="y_BazxBhM6D4knRKg7ZD-9" vertex="1">
          <mxGeometry x="750" y="2340" width="271" height="150" as="geometry" />
        </mxCell>
        <mxCell id="kZPlmQz0IdTDuedcgZzN-80" value="" style="endArrow=classic;html=1;rounded=0;dashed=1;strokeWidth=3;" parent="y_BazxBhM6D4knRKg7ZD-9" source="kZPlmQz0IdTDuedcgZzN-49" target="kZPlmQz0IdTDuedcgZzN-79" edge="1">
          <mxGeometry relative="1" as="geometry">
            <mxPoint x="653.63" y="2178" as="sourcePoint" />
            <mxPoint x="900.63" y="2072" as="targetPoint" />
            <Array as="points" />
          </mxGeometry>
        </mxCell>
        <mxCell id="kZPlmQz0IdTDuedcgZzN-81" value="&lt;font style=&quot;font-size: 22px;&quot;&gt;&amp;lt;&amp;lt;Include&amp;gt;&amp;gt;&lt;/font&gt;" style="edgeLabel;resizable=0;html=1;align=center;verticalAlign=middle;" parent="kZPlmQz0IdTDuedcgZzN-80" connectable="0" vertex="1">
          <mxGeometry relative="1" as="geometry" />
        </mxCell>
        <mxCell id="kZPlmQz0IdTDuedcgZzN-82" value="&lt;span style=&quot;font-size: 31px;&quot;&gt;Add New Product&lt;/span&gt;" style="ellipse;whiteSpace=wrap;html=1;" parent="y_BazxBhM6D4knRKg7ZD-9" vertex="1">
          <mxGeometry x="421.16" y="5010" width="409" height="240" as="geometry" />
        </mxCell>
        <mxCell id="y_BazxBhM6D4knRKg7ZD-55" value="&lt;span style=&quot;font-size: 31px;&quot;&gt;Manage&lt;/span&gt;" style="ellipse;whiteSpace=wrap;html=1;" parent="y_BazxBhM6D4knRKg7ZD-9" vertex="1">
          <mxGeometry x="400.16" y="5960" width="430" height="260" as="geometry" />
        </mxCell>
        <mxCell id="y_BazxBhM6D4knRKg7ZD-56" value="&lt;span style=&quot;font-size: 31px;&quot;&gt;Orders&lt;br&gt;&lt;/span&gt;" style="ellipse;whiteSpace=wrap;html=1;" parent="y_BazxBhM6D4knRKg7ZD-9" vertex="1">
          <mxGeometry x="881.34" y="6269" width="353.75" height="180" as="geometry" />
        </mxCell>
        <mxCell id="1b8Qt41T46wIf8lHuvjN-24" value="&lt;span style=&quot;font-size: 31px;&quot;&gt;User Accounts&lt;/span&gt;" style="ellipse;whiteSpace=wrap;html=1;" parent="y_BazxBhM6D4knRKg7ZD-9" vertex="1">
          <mxGeometry x="189.9100000000001" y="6430" width="353.75" height="180" as="geometry" />
        </mxCell>
        <mxCell id="y_BazxBhM6D4knRKg7ZD-57" value="&lt;span style=&quot;font-size: 31px;&quot;&gt;Manage Inventory&lt;br&gt;&lt;/span&gt;" style="ellipse;whiteSpace=wrap;html=1;" parent="y_BazxBhM6D4knRKg7ZD-9" vertex="1">
          <mxGeometry x="591.0400000000001" y="6430" width="353.75" height="180" as="geometry" />
        </mxCell>
        <mxCell id="y_BazxBhM6D4knRKg7ZD-61" value="" style="endArrow=classic;html=1;rounded=0;dashed=1;strokeWidth=3;exitX=0.68;exitY=0.954;exitDx=0;exitDy=0;exitPerimeter=0;" parent="y_BazxBhM6D4knRKg7ZD-9" source="y_BazxBhM6D4knRKg7ZD-55" edge="1">
          <mxGeometry relative="1" as="geometry">
            <mxPoint x="846.67" y="6040" as="sourcePoint" />
            <mxPoint x="741.16" y="6440" as="targetPoint" />
            <Array as="points" />
          </mxGeometry>
        </mxCell>
        <mxCell id="y_BazxBhM6D4knRKg7ZD-62" value="&lt;font style=&quot;font-size: 22px;&quot;&gt;&amp;lt;&amp;lt;Include&amp;gt;&amp;gt;&lt;/font&gt;" style="edgeLabel;resizable=0;html=1;align=center;verticalAlign=middle;" parent="y_BazxBhM6D4knRKg7ZD-61" connectable="0" vertex="1">
          <mxGeometry relative="1" as="geometry" />
        </mxCell>
        <mxCell id="y_BazxBhM6D4knRKg7ZD-63" value="" style="endArrow=classic;html=1;rounded=0;dashed=1;strokeWidth=3;exitX=0;exitY=1;exitDx=0;exitDy=0;entryX=0.5;entryY=0;entryDx=0;entryDy=0;" parent="y_BazxBhM6D4knRKg7ZD-9" source="y_BazxBhM6D4knRKg7ZD-55" target="1b8Qt41T46wIf8lHuvjN-24" edge="1">
          <mxGeometry relative="1" as="geometry">
            <mxPoint x="1047.92" y="6020" as="sourcePoint" />
            <mxPoint x="1113.92" y="6222" as="targetPoint" />
            <Array as="points" />
          </mxGeometry>
        </mxCell>
        <mxCell id="y_BazxBhM6D4knRKg7ZD-64" value="&lt;font style=&quot;font-size: 22px;&quot;&gt;&amp;lt;&amp;lt;Include&amp;gt;&amp;gt;&lt;/font&gt;" style="edgeLabel;resizable=0;html=1;align=center;verticalAlign=middle;" parent="y_BazxBhM6D4knRKg7ZD-63" connectable="0" vertex="1">
          <mxGeometry relative="1" as="geometry" />
        </mxCell>
        <mxCell id="y_BazxBhM6D4knRKg7ZD-65" value="" style="endArrow=classic;html=1;rounded=0;dashed=1;strokeWidth=3;exitX=0.938;exitY=0.768;exitDx=0;exitDy=0;exitPerimeter=0;entryX=0.23;entryY=0.072;entryDx=0;entryDy=0;entryPerimeter=0;" parent="y_BazxBhM6D4knRKg7ZD-9" source="y_BazxBhM6D4knRKg7ZD-55" target="y_BazxBhM6D4knRKg7ZD-56" edge="1">
          <mxGeometry relative="1" as="geometry">
            <mxPoint x="1197.92" y="5990" as="sourcePoint" />
            <mxPoint x="946.1559979355783" y="6286.202783035238" as="targetPoint" />
            <Array as="points" />
          </mxGeometry>
        </mxCell>
        <mxCell id="y_BazxBhM6D4knRKg7ZD-66" value="&lt;font style=&quot;font-size: 22px;&quot;&gt;&amp;lt;&amp;lt;Include&amp;gt;&amp;gt;&lt;/font&gt;" style="edgeLabel;resizable=0;html=1;align=center;verticalAlign=middle;" parent="y_BazxBhM6D4knRKg7ZD-65" connectable="0" vertex="1">
          <mxGeometry relative="1" as="geometry" />
        </mxCell>
        <mxCell id="1b8Qt41T46wIf8lHuvjN-29" value="&lt;font style=&quot;font-size: 35px;&quot;&gt;Green Super Market&lt;/font&gt;" style="text;html=1;align=center;verticalAlign=middle;resizable=0;points=[];autosize=1;strokeColor=none;fillColor=none;" parent="y_BazxBhM6D4knRKg7ZD-9" vertex="1">
          <mxGeometry x="20" y="20" width="340" height="60" as="geometry" />
        </mxCell>
        <mxCell id="t_fGsFZoBopvZKXop3bA-2" value="" style="endArrow=classic;html=1;rounded=0;exitX=0;exitY=0.5;exitDx=0;exitDy=0;entryX=0.5;entryY=0;entryDx=0;entryDy=0;dashed=1;strokeWidth=3;" parent="y_BazxBhM6D4knRKg7ZD-9" source="kZPlmQz0IdTDuedcgZzN-49" target="kZPlmQz0IdTDuedcgZzN-31" edge="1">
          <mxGeometry relative="1" as="geometry">
            <mxPoint x="854.6600000000001" y="3110" as="sourcePoint" />
            <mxPoint x="642.6600000000001" y="3449" as="targetPoint" />
            <Array as="points">
              <mxPoint x="100" y="1940" />
              <mxPoint x="100" y="3270" />
              <mxPoint x="658" y="3270" />
            </Array>
          </mxGeometry>
        </mxCell>
        <mxCell id="t_fGsFZoBopvZKXop3bA-3" value="&lt;font style=&quot;font-size: 22px;&quot;&gt;&amp;lt;&amp;lt;Include&amp;gt;&amp;gt;&lt;/font&gt;" style="edgeLabel;resizable=0;html=1;align=center;verticalAlign=middle;" parent="t_fGsFZoBopvZKXop3bA-2" connectable="0" vertex="1">
          <mxGeometry relative="1" as="geometry" />
        </mxCell>
        <mxCell id="y_BazxBhM6D4knRKg7ZD-37" style="edgeStyle=orthogonalEdgeStyle;rounded=0;orthogonalLoop=1;jettySize=auto;html=1;entryX=0;entryY=1;entryDx=0;entryDy=0;endArrow=none;endFill=0;fillColor=#d5e8d4;strokeColor=#82b366;strokeWidth=5;exitX=0.25;exitY=0.1;exitDx=0;exitDy=0;exitPerimeter=0;" parent="1" source="kZPlmQz0IdTDuedcgZzN-18" target="kZPlmQz0IdTDuedcgZzN-22" edge="1">
          <mxGeometry relative="1" as="geometry">
            <Array as="points">
              <mxPoint x="120" y="3655" />
              <mxPoint x="120" y="1880" />
              <mxPoint x="600" y="1880" />
              <mxPoint x="600" y="850" />
              <mxPoint x="1022" y="850" />
            </Array>
            <mxPoint x="240" y="1970" as="sourcePoint" />
          </mxGeometry>
        </mxCell>
        <mxCell id="1b8Qt41T46wIf8lHuvjN-32" style="edgeStyle=orthogonalEdgeStyle;rounded=0;orthogonalLoop=1;jettySize=auto;html=1;exitX=1;exitY=1;exitDx=0;exitDy=0;exitPerimeter=0;entryX=0;entryY=0;entryDx=0;entryDy=0;strokeWidth=5;endArrow=none;endFill=0;fillColor=#d5e8d4;strokeColor=#82b366;" parent="1" source="kZPlmQz0IdTDuedcgZzN-18" target="1b8Qt41T46wIf8lHuvjN-17" edge="1">
          <mxGeometry relative="1" as="geometry">
            <mxPoint x="-400" y="5440" as="targetPoint" />
            <Array as="points">
              <mxPoint x="360" y="3880" />
              <mxPoint x="360" y="4642" />
            </Array>
          </mxGeometry>
        </mxCell>
        <mxCell id="1b8Qt41T46wIf8lHuvjN-33" style="edgeStyle=orthogonalEdgeStyle;rounded=0;orthogonalLoop=1;jettySize=auto;html=1;exitX=0.25;exitY=0.1;exitDx=0;exitDy=0;exitPerimeter=0;entryX=0;entryY=0.5;entryDx=0;entryDy=0;strokeWidth=5;fillColor=#d5e8d4;strokeColor=#82b366;endArrow=none;endFill=0;" parent="1" source="kZPlmQz0IdTDuedcgZzN-18" target="y_BazxBhM6D4knRKg7ZD-55" edge="1">
          <mxGeometry relative="1" as="geometry">
            <Array as="points">
              <mxPoint x="-340" y="3655" />
              <mxPoint x="-340" y="6420" />
            </Array>
          </mxGeometry>
        </mxCell>
        <mxCell id="kZPlmQz0IdTDuedcgZzN-18" value="&lt;span style=&quot;font-size: 39px;&quot;&gt;Admin&lt;/span&gt;" style="shape=umlActor;verticalLabelPosition=bottom;verticalAlign=top;html=1;outlineConnect=0;strokeWidth=3;" parent="1" vertex="1">
          <mxGeometry x="110" y="3630" width="180" height="250" as="geometry" />
        </mxCell>
        <mxCell id="y_BazxBhM6D4knRKg7ZD-30" style="edgeStyle=orthogonalEdgeStyle;rounded=0;orthogonalLoop=1;jettySize=auto;html=1;exitX=0.5;exitY=0;exitDx=0;exitDy=0;exitPerimeter=0;entryX=0;entryY=0.5;entryDx=0;entryDy=0;endArrow=none;endFill=0;fillColor=#dae8fc;strokeColor=#6c8ebf;strokeWidth=5;" parent="1" source="kZPlmQz0IdTDuedcgZzN-23" target="kZPlmQz0IdTDuedcgZzN-22" edge="1">
          <mxGeometry relative="1" as="geometry" />
        </mxCell>
        <mxCell id="y_BazxBhM6D4knRKg7ZD-32" style="edgeStyle=orthogonalEdgeStyle;rounded=0;orthogonalLoop=1;jettySize=auto;html=1;exitX=0.75;exitY=0.1;exitDx=0;exitDy=0;exitPerimeter=0;entryX=0;entryY=0.5;entryDx=0;entryDy=0;endArrow=none;endFill=0;startArrow=none;startFill=0;fillColor=#dae8fc;strokeColor=#6c8ebf;strokeWidth=5;" parent="1" source="kZPlmQz0IdTDuedcgZzN-23" target="kZPlmQz0IdTDuedcgZzN-29" edge="1">
          <mxGeometry relative="1" as="geometry">
            <Array as="points">
              <mxPoint x="280" y="1385" />
              <mxPoint x="280" y="1010" />
            </Array>
          </mxGeometry>
        </mxCell>
        <mxCell id="kZPlmQz0IdTDuedcgZzN-23" value="&lt;font style=&quot;font-size: 39px;&quot;&gt;User&lt;/font&gt;" style="shape=umlActor;verticalLabelPosition=bottom;verticalAlign=top;html=1;outlineConnect=0;strokeWidth=4;" parent="1" vertex="1">
          <mxGeometry x="100" y="1360" width="180" height="250" as="geometry" />
        </mxCell>
        <mxCell id="y_BazxBhM6D4knRKg7ZD-39" style="edgeStyle=orthogonalEdgeStyle;rounded=0;orthogonalLoop=1;jettySize=auto;html=1;exitX=0.5;exitY=1;exitDx=0;exitDy=0;endArrow=none;endFill=0;fillColor=#d5e8d4;strokeColor=#82b366;strokeWidth=5;entryX=0.5;entryY=0;entryDx=0;entryDy=0;entryPerimeter=0;" parent="1" source="kZPlmQz0IdTDuedcgZzN-29" target="kZPlmQz0IdTDuedcgZzN-18" edge="1">
          <mxGeometry relative="1" as="geometry">
            <Array as="points">
              <mxPoint x="1164" y="1280" />
              <mxPoint x="760" y="1280" />
              <mxPoint x="760" y="1990" />
              <mxPoint x="200" y="1990" />
            </Array>
            <mxPoint x="220" y="2660" as="targetPoint" />
          </mxGeometry>
        </mxCell>
        <mxCell id="y_BazxBhM6D4knRKg7ZD-42" value="" style="endArrow=none;html=1;rounded=0;entryX=0.5;entryY=1;entryDx=0;entryDy=0;exitX=0.75;exitY=0.1;exitDx=0;exitDy=0;exitPerimeter=0;fillColor=#d5e8d4;strokeColor=#82b366;strokeWidth=5;" parent="1" source="kZPlmQz0IdTDuedcgZzN-18" target="kZPlmQz0IdTDuedcgZzN-54" edge="1">
          <mxGeometry width="50" height="50" relative="1" as="geometry">
            <mxPoint x="820" y="1970" as="sourcePoint" />
            <mxPoint x="870" y="1920" as="targetPoint" />
            <Array as="points">
              <mxPoint x="320" y="3655" />
              <mxPoint x="340" y="2120" />
              <mxPoint x="1164" y="2120" />
              <mxPoint x="1164" y="1650" />
            </Array>
          </mxGeometry>
        </mxCell>
        <mxCell id="y_BazxBhM6D4knRKg7ZD-43" value="" style="endArrow=none;html=1;rounded=0;entryX=1;entryY=0.3333333333333333;entryDx=0;entryDy=0;entryPerimeter=0;fillColor=#dae8fc;strokeColor=#6c8ebf;strokeWidth=5;endFill=0;" parent="1" target="kZPlmQz0IdTDuedcgZzN-23" edge="1">
          <mxGeometry width="50" height="50" relative="1" as="geometry">
            <mxPoint x="960" y="1443" as="sourcePoint" />
            <mxPoint x="1390" y="1590" as="targetPoint" />
            <Array as="points" />
          </mxGeometry>
        </mxCell>
        <mxCell id="y_BazxBhM6D4knRKg7ZD-67" value="" style="endArrow=none;html=1;rounded=0;entryX=1;entryY=1;entryDx=0;entryDy=0;entryPerimeter=0;exitX=0.5;exitY=0;exitDx=0;exitDy=0;fillColor=#dae8fc;strokeColor=#6c8ebf;strokeWidth=5;endFill=0;" parent="1" source="kZPlmQz0IdTDuedcgZzN-49" target="kZPlmQz0IdTDuedcgZzN-23" edge="1">
          <mxGeometry width="50" height="50" relative="1" as="geometry">
            <mxPoint x="1014" y="2095" as="sourcePoint" />
            <mxPoint x="50" y="1970" as="targetPoint" />
            <Array as="points">
              <mxPoint x="1088" y="2040" />
              <mxPoint x="280" y="2040" />
            </Array>
          </mxGeometry>
        </mxCell>
        <mxCell id="y_BazxBhM6D4knRKg7ZD-71" style="edgeStyle=orthogonalEdgeStyle;rounded=0;orthogonalLoop=1;jettySize=auto;html=1;exitX=0.25;exitY=0.1;exitDx=0;exitDy=0;exitPerimeter=0;fillColor=#dae8fc;strokeColor=#6c8ebf;strokeWidth=5;endArrow=none;endFill=0;" parent="1" source="kZPlmQz0IdTDuedcgZzN-23" target="1b8Qt41T46wIf8lHuvjN-17" edge="1">
          <mxGeometry relative="1" as="geometry">
            <mxPoint x="-940" y="1430" as="sourcePoint" />
            <mxPoint x="919" y="4720" as="targetPoint" />
            <Array as="points">
              <mxPoint x="-140" y="1385" />
              <mxPoint x="-140" y="4720" />
            </Array>
          </mxGeometry>
        </mxCell>
        <mxCell id="y_BazxBhM6D4knRKg7ZD-72" style="edgeStyle=orthogonalEdgeStyle;rounded=0;orthogonalLoop=1;jettySize=auto;html=1;exitX=0.5;exitY=0.5;exitDx=0;exitDy=0;exitPerimeter=0;fillColor=#dae8fc;strokeColor=#6c8ebf;strokeWidth=5;endArrow=none;endFill=0;entryX=0;entryY=0.5;entryDx=0;entryDy=0;" parent="1" source="kZPlmQz0IdTDuedcgZzN-23" target="kZPlmQz0IdTDuedcgZzN-31" edge="1">
          <mxGeometry relative="1" as="geometry">
            <mxPoint x="184.67000000000002" y="1460" as="sourcePoint" />
            <mxPoint x="1022.67" y="4872" as="targetPoint" />
            <Array as="points">
              <mxPoint x="-60" y="1485" />
              <mxPoint x="-60" y="4000" />
            </Array>
          </mxGeometry>
        </mxCell>
        <mxCell id="y_BazxBhM6D4knRKg7ZD-73" style="edgeStyle=orthogonalEdgeStyle;rounded=0;orthogonalLoop=1;jettySize=auto;html=1;exitX=0;exitY=0.3333333333333333;exitDx=0;exitDy=0;exitPerimeter=0;entryX=0;entryY=0.5;entryDx=0;entryDy=0;strokeWidth=5;fillColor=#d5e8d4;strokeColor=#82b366;endArrow=none;endFill=0;" parent="1" source="kZPlmQz0IdTDuedcgZzN-18" edge="1">
          <mxGeometry relative="1" as="geometry">
            <mxPoint x="881" y="5470" as="targetPoint" />
            <Array as="points">
              <mxPoint x="-220" y="3714" />
              <mxPoint x="-220" y="5470" />
            </Array>
            <mxPoint x="110" y="3710" as="sourcePoint" />
          </mxGeometry>
        </mxCell>
        <mxCell id="y_BazxBhM6D4knRKg7ZD-77" value="" style="endArrow=none;html=1;rounded=0;entryX=0;entryY=0;entryDx=0;entryDy=0;exitX=1;exitY=0.3333333333333333;exitDx=0;exitDy=0;exitPerimeter=0;fillColor=#d5e8d4;strokeColor=#82b366;strokeWidth=5;" parent="1" source="kZPlmQz0IdTDuedcgZzN-18" target="kZPlmQz0IdTDuedcgZzN-31" edge="1">
          <mxGeometry width="50" height="50" relative="1" as="geometry">
            <mxPoint x="340" y="3785" as="sourcePoint" />
            <mxPoint x="1259" y="1690" as="targetPoint" />
            <Array as="points">
              <mxPoint x="430" y="3713" />
              <mxPoint x="973" y="3720" />
            </Array>
          </mxGeometry>
        </mxCell>
      </root>
    </mxGraphModel>
  </diagram>
</mxfile>
